<svg width="27" height="28" viewBox="0 0 27 28" fill="none" xmlns="http://www.w3.org/2000/svg">
<path fill-rule="evenodd" clip-rule="evenodd" d="M23.8058 15.365L26.7334 17.682C26.997 17.899 27.0734 18.2771 26.8998 18.578L24.1248 23.429C23.9514 23.73 23.5906 23.849 23.2784 23.73L19.8235 22.323C19.109 22.883 18.325 23.345 17.4786 23.702L16.9583 27.412C16.9028 27.741 16.6184 28 16.2715 28H10.7215C10.3746 28 10.0901 27.741 10.0347 27.412L9.51433 23.702C8.66797 23.345 7.88405 22.8761 7.16946 22.323L3.71455 23.73C3.40236 23.856 3.04165 23.73 2.86819 23.429L0.0931375 18.578C-0.0803234 18.27 -0.00396681 17.892 0.259639 17.682L3.18727 15.365C3.13179 14.917 3.09017 14.462 3.09017 14C3.09017 13.538 3.13179 13.083 3.18727 12.635L0.259639 10.318C-0.00396681 10.101 -0.0803234 9.72302 0.0931375 9.42199L2.86825 4.57099C3.04165 4.26996 3.40242 4.15098 3.71461 4.26996L7.16952 5.67697C7.88405 5.11699 8.66804 4.65499 9.5144 4.29799L10.0347 0.588001C10.0902 0.259022 10.3747 0 10.7215 0H16.2716C16.6184 0 16.9028 0.259022 16.9653 0.588001L17.4857 4.29799C18.332 4.65499 19.1159 5.12394 19.8305 5.67697L23.2855 4.26996C23.5976 4.14396 23.9584 4.26996 24.1318 4.57099L26.9069 9.42199C27.0803 9.72997 27.004 10.108 26.7404 10.318L23.8058 12.635C23.8612 13.083 23.9029 13.538 23.9029 14C23.9029 14.462 23.8612 14.917 23.8058 15.365ZM8.6402 14C8.6402 16.709 10.8117 18.9 13.4965 18.9C16.1814 18.9 18.3528 16.7091 18.3528 14.0001C18.3528 11.2911 16.1814 9.10004 13.4965 9.10004C10.8117 9.10004 8.6402 11.291 8.6402 14Z" fill="#D7E0FF"/>
</svg>
